<?xml version="1.0" standalone="no"?>
<!DOCTYPE svg PUBLIC "-//W3C//DTD SVG 20010904//EN"
 "http://www.w3.org/TR/2001/REC-SVG-20010904/DTD/svg10.dtd">
<svg version="1.0" xmlns="http://www.w3.org/2000/svg"
 width="1500.000000pt" height="1500.000000pt" viewBox="0 0 1500.000000 1500.000000"
 preserveAspectRatio="xMidYMid meet">
<metadata>
Created by potrace 1.14, written by Peter Selinger 2001-2017
</metadata>
<g transform="translate(0.000000,1500.000000) scale(0.100000,-0.100000)"
fill="#000000" stroke="none">
<path d="M7229 12116 c-2 -2 -49 -7 -103 -11 -55 -4 -109 -9 -120 -10 -12 -2
-46 -6 -76 -9 -30 -4 -64 -8 -75 -10 -11 -2 -42 -7 -70 -10 -320 -43 -813
-187 -1123 -328 -34 -15 -65 -28 -68 -28 -17 0 -335 -166 -456 -239 -349 -207
-613 -414 -913 -715 -280 -280 -477 -530 -679 -859 -95 -156 -100 -143 59
-142 l136 1 41 69 c229 385 577 788 938 1087 114 94 143 116 265 202 279 197
568 357 860 476 11 4 45 18 75 30 168 69 455 154 690 204 108 23 136 28 228
41 20 3 43 8 50 10 6 2 47 7 90 11 42 3 80 8 83 10 12 7 267 18 429 18 157 1
390 -9 455 -19 17 -2 53 -6 80 -10 56 -6 103 -13 155 -21 19 -4 49 -8 65 -11
17 -2 82 -15 145 -28 437 -91 834 -241 1258 -475 126 -70 433 -271 478 -315 6
-5 26 -21 44 -35 174 -129 446 -386 605 -570 26 -30 59 -68 72 -84 93 -107
280 -371 380 -536 l33 -55 139 0 140 0 -18 30 c-10 16 -40 66 -67 110 -101
170 -240 366 -382 540 -36 44 -68 82 -71 85 -3 3 -26 28 -50 55 -441 501
-1033 923 -1661 1185 -320 134 -705 247 -1005 294 -151 24 -172 27 -295 40
-30 4 -73 9 -95 12 -43 6 -660 15 -666 10z"/>
<path d="M4510 8388 l0 -642 -33 52 c-67 106 -199 217 -308 257 -24 9 -53 21
-64 25 -73 31 -272 44 -395 27 -126 -17 -300 -85 -405 -157 -181 -124 -343
-361 -391 -571 -28 -120 -36 -191 -38 -324 -9 -539 267 -950 717 -1067 147
-39 406 -28 522 21 11 5 40 17 65 27 136 57 293 206 334 318 11 32 15 14 22
-99 3 -61 8 -128 9 -150 2 -22 3 -55 4 -72 l1 -33 145 0 145 0 0 135 c0 74 0
677 0 1340 0 663 0 1284 0 1380 l0 175 -165 0 -165 0 0 -642z m-476 -582 c102
-24 181 -70 267 -156 137 -136 200 -311 204 -562 4 -219 -33 -380 -120 -533
-85 -149 -234 -261 -385 -290 -223 -41 -440 15 -573 148 -116 116 -176 249
-212 467 -8 46 -8 253 0 310 39 293 183 507 396 590 127 49 286 59 423 26z"/>
<path d="M6225 8112 c-273 -28 -495 -144 -636 -332 -36 -48 -89 -149 -89 -170
0 -11 44 -44 125 -93 69 -43 129 -77 133 -77 4 1 23 35 42 78 41 92 136 194
219 236 120 61 312 87 451 60 194 -37 315 -165 344 -366 22 -146 12 -197 -36
-198 -9 0 -74 -12 -145 -26 -70 -14 -139 -27 -153 -30 -14 -2 -36 -7 -50 -10
-14 -3 -35 -8 -47 -10 -13 -2 -33 -6 -45 -8 -371 -66 -504 -108 -631 -200
-158 -112 -229 -261 -224 -465 6 -198 94 -345 267 -444 207 -118 556 -126 788
-17 35 17 65 30 68 30 15 0 158 117 185 151 30 39 41 42 45 16 13 -72 99 -176
179 -216 95 -47 263 -62 370 -32 62 17 64 20 70 116 3 50 8 107 10 128 l4 38
-57 -7 c-139 -19 -216 2 -243 68 -10 24 -13 161 -14 612 -2 583 -5 624 -40
731 -71 210 -265 365 -530 420 -73 15 -283 25 -360 17z m599 -1281 c-3 -220
-31 -300 -138 -406 -104 -103 -244 -160 -421 -172 -164 -11 -294 26 -370 105
-97 101 -99 268 -3 364 41 41 148 97 225 117 55 15 468 101 512 107 19 2 37 7
41 9 4 3 23 7 41 10 19 3 50 10 69 14 19 4 37 7 41 5 3 -1 4 -70 3 -153z"/>
<path d="M8598 8115 c-2 -2 -32 -6 -68 -9 -287 -28 -560 -213 -665 -451 l-25
-55 53 -33 c123 -78 204 -127 210 -127 4 0 21 30 38 68 64 139 158 225 306
279 148 53 357 51 480 -7 116 -54 193 -149 226 -280 18 -67 23 -240 7 -240
-15 0 -16 0 -51 -10 -18 -5 -48 -12 -68 -15 -20 -3 -46 -7 -56 -9 -51 -11
-290 -58 -309 -62 -12 -2 -55 -10 -96 -19 -41 -8 -89 -17 -106 -20 -94 -15
-240 -61 -320 -101 -209 -103 -311 -253 -321 -474 -9 -177 33 -289 148 -402
77 -76 170 -126 296 -159 91 -24 281 -34 363 -19 30 5 66 11 80 14 97 18 232
79 316 142 55 41 124 111 124 125 0 5 5 9 10 9 6 0 10 -6 10 -12 0 -7 14 -40
31 -73 43 -85 88 -125 199 -174 71 -32 252 -35 338 -7 41 14 52 22 52 39 1 35
10 169 15 205 l4 34 -52 -8 c-80 -12 -160 -8 -195 10 -67 35 -66 18 -68 661
-1 653 -3 667 -74 811 -114 231 -361 361 -702 368 -70 2 -129 2 -130 1z m574
-1275 c0 -78 -6 -165 -13 -194 -45 -196 -203 -331 -444 -381 -16 -4 -75 -8
-130 -11 -159 -6 -262 26 -341 105 -50 49 -70 98 -73 179 -2 48 3 74 22 115
52 113 179 174 497 236 99 20 120 24 180 36 14 3 86 18 160 34 74 15 137 27
138 25 2 -1 4 -66 4 -144z"/>
<path d="M11228 8115 c-2 -2 -23 -5 -48 -9 -235 -30 -411 -128 -518 -286 -39
-59 -42 -61 -43 -34 -1 16 -3 38 -4 49 -1 11 -5 67 -9 124 -3 57 -8 107 -12
110 -3 3 -68 6 -145 7 l-139 0 0 -1038 0 -1038 165 1 165 1 0 481 c0 661 4
774 29 869 63 240 221 395 463 455 103 26 262 22 337 -9 14 -6 31 -12 37 -13
16 -4 114 -68 140 -91 62 -58 102 -140 129 -270 15 -69 17 -162 19 -749 l1
-670 165 0 165 0 0 700 c1 745 -2 798 -41 918 -85 261 -290 425 -604 482 -35
7 -247 15 -252 10z"/>
<path d="M3477 5215 c10 -32 178 -296 266 -419 567 -789 1374 -1382 2298
-1690 130 -44 391 -115 494 -135 28 -6 59 -12 71 -15 51 -11 275 -46 329 -51
33 -4 67 -8 75 -10 105 -27 826 -27 980 0 14 2 52 7 85 10 33 3 67 7 75 10 8
2 35 6 60 9 25 3 56 8 70 11 14 3 39 7 55 10 17 3 55 10 85 16 30 7 60 12 65
13 183 36 587 162 770 240 414 178 714 349 1038 593 215 163 381 313 619 564
57 59 219 257 301 366 124 164 322 476 313 491 -4 7 -264 8 -269 1 -2 -2 -34
-53 -71 -114 -134 -215 -341 -485 -500 -654 -145 -153 -368 -359 -471 -436
-22 -17 -42 -32 -45 -35 -19 -22 -259 -190 -366 -257 -370 -233 -860 -439
-1283 -538 -36 -9 -84 -20 -106 -25 -34 -9 -204 -39 -300 -54 -29 -5 -121 -16
-180 -22 -247 -24 -676 -24 -870 1 -16 2 -57 6 -90 10 -33 3 -71 8 -85 10 -96
15 -223 37 -265 46 -92 20 -300 70 -315 76 -8 3 -20 7 -27 9 -6 1 -86 27 -176
58 -356 120 -697 286 -999 487 -125 83 -180 121 -188 129 -3 3 -41 32 -85 65
-44 33 -82 63 -85 66 -3 3 -43 38 -90 78 -162 138 -381 363 -513 525 -18 21
-37 43 -42 50 -50 53 -216 290 -300 426 -33 52 -60 97 -62 99 -2 2 -64 5 -138
5 -130 1 -135 0 -128 -19z"/>
</g>
</svg>
